# xmcd
#
# Track frame offsets:
#	150
#	21298
#	39222
#	56494
#	73519
#	90256
#	107372
#	125797
#	143630
#	159972
#	176596
#	195352
#
# Disc length: 2838 seconds
#
# Revision: 1
# Processed by: cddbd v1.5.2PL0 Copyright (c) Steve Scherf et al.
# Submitted via: audiograbber 1.83.01
#
DISCID=8e0b140c
DTITLE=Roland Kaiser - Ich Fühl Mich Wohl In Deinem Leben
DYEAR=1984
DGENRE=Schlager
TTITLE0=Ich Fühl' Mich Wohl In Deinem Leben
TTITLE1=Nur Du Und Ich
TTITLE2=Wie Weit Ist Zu Weit
TTITLE3=Liebe Gibt Es Nicht
TTITLE4=In Diesem Teil Des Himmels Wohne Ich
TTITLE5=Wie Das Erste Mal
TTITLE6=Joana
TTITLE7=Tina Weint
TTITLE8=Flieg' Mit Mir Zu Den Sternen
TTITLE9=Und In Dieser Nacht Bin Ich Gestorben
TTITLE10=Es Kann Der Frömmste Nicht In Frieden Leben
TTITLE11=Freiheit Liegt Im Land Der Träume
EXTD=
EXTT0=
EXTT1=
EXTT2=
EXTT3=
EXTT4=
EXTT5=
EXTT6=
EXTT7=
EXTT8=
EXTT9=
EXTT10=
EXTT11=
PLAYORDER=
